<svg fill="#111" fill-rule="evenodd" height="1em" style="flex:none;line-height:1" viewBox="0 0 24 24" width="1em" xmlns="http://www.w3.org/2000/svg"><title>Crush</title><path clip-rule="evenodd" d="M7 3h10a4 4 0 014 4v10a4 4 0 01-4 4H7a4 4 0 01-4-4V7a4 4 0 014-4zm0 2.2a1.8 1.8 0 00-1.8 1.8v10a1.8 1.8 0 001.8 1.8h10a1.8 1.8 0 001.8-1.8V7a1.8 1.8 0 00-1.8-1.8H7zm3.3 4.1a.9.9 0 00-1.3 1.3l2 2-2 2a.9.9 0 101.3 1.3l2.6-2.6a.9.9 0 000-1.3l-2.6-2.7zm5.2 1.3a.9.9 0 00-.2 1.8l2.4.4a.9.9 0 00.2-1.8l-2.4-.4z"/></svg>
